<?xml version="1.0" encoding="UTF-8" standalone="no"?>
<!-- Created with Inkscape (http://www.inkscape.org/) -->

<svg
   version="1.1"
   id="svg2"
   xml:space="preserve"
   width="1600"
   height="700"
   viewBox="0 0 1600 699.99999"
   xmlns="http://www.w3.org/2000/svg"
   xmlns:svg="http://www.w3.org/2000/svg"><defs
     id="defs6"><rect
       x="779.62714"
       y="257.92474"
       width="1387.8901"
       height="889.49103"
       id="rect3308" /></defs><g
     id="g8"
     transform="matrix(1.3333333,0,0,-1.3333333,-454.31332,3913.1726)"
     style="display:none"><g
       id="g10"
       transform="scale(0.1)"><path
         d="M 0,36000 H 36000 V 0 H 0 v 36000"
         style="fill:#ffffff;fill-opacity:1;fill-rule:evenodd;stroke:none"
         id="path12" /></g></g><g
     id="layer3"
     transform="translate(-454.31332,-886.82743)"><path
       style="fill:none;stroke:#000000;stroke-width:0.189805px;stroke-linecap:butt;stroke-linejoin:miter;stroke-opacity:1"
       d="m 685.03145,1112.6639 -26.78794,-14.0044"
       id="path1983" /><path
       style="fill:none;stroke:#000000;stroke-width:0.189805px;stroke-linecap:butt;stroke-linejoin:miter;stroke-opacity:1"
       d="M 624.38638,1046.8808 611.61457,999.21566"
       id="path1985" /><path
       style="fill:#ffffff;fill-opacity:1;stroke:none;stroke-width:0.189805px;stroke-linecap:butt;stroke-linejoin:miter;stroke-opacity:1"
       d="m 673.40786,1111.6462 -43.79425,-49.9931 -17.99904,-62.43744 36.1152,-61.9779 69.45208,-28.33068 58.79779,8.17098 51.17622,20.1471 55.17063,-8.8583 22.99254,38.8538 -0.45462,31.0374 -52.54354,-33.7065 -31.71841,5.5628 -79.71518,-27.3049 -87.91306,71.76564 53.80796,95.103 z"
       id="path2107" /><path
       style="fill:#ffffff;fill-opacity:1;stroke:#000000;stroke-width:0.189805px;stroke-linecap:butt;stroke-linejoin:miter;stroke-opacity:1"
       d="m 673.20555,1138.3341 -1.7619,25.4233 86.77476,17.0325 26.4125,66.1749 -22.50647,109.2475 2.14119,54.5684 35.97123,-0.7228 -1.87315,-60.281 35.28325,-117.9328 -20.71252,-75.1903 -86.20146,-19.9813 z"
       id="path3018" /><path
       style="fill:#ffffff;fill-opacity:1;stroke:#000000;stroke-width:0.189805px;stroke-linecap:butt;stroke-linejoin:miter;stroke-opacity:1"
       d="m 871.88098,1253.8445 4.02076,-38.2436 16.16235,-26.5074 -17.35944,-34.0459 -23.48918,-30.2977 3.25938,-27.0265 14.58683,-11.0278 46.21842,-12.8725 27.51064,4.0324 10.08907,-28.8727 17.36836,-3.3014 11.144,39.3308 -5.8775,73.9076 12.1982,25.9784 70.64373,62.5786 21.4888,47.0503 4.0195,52.7228 -14.7752,39.0732 -39.7012,38.491 -36.92003,-6.239 43.22613,-51.3545 -14.4824,-92.6295 -66.74546,-59.63 z"
       id="path3317" /><text
       xml:space="preserve"
       transform="translate(349.17248,869.05871)"
       id="text3306"
       style="font-style:normal;font-variant:normal;font-weight:normal;font-stretch:normal;font-size:378.667px;line-height:1.25;font-family:'Gochi Hand';-inkscape-font-specification:'Gochi Hand';white-space:pre;shape-inside:url(#rect3308);fill:#000000;fill-opacity:1;stroke:none"><tspan
         x="779.62695"
         y="562.4063"
         id="tspan37620"><tspan
           style="font-family:NettiesHand;-inkscape-font-specification:NettiesHand"
           id="tspan37618">fuppi</tspan></tspan></text></g><g
     id="layer2"
     style="display:inline"
     transform="translate(-454.31332,-886.82743)"><path
       d="m 704.94643,969.83426 c 17.24943,9.7535 51.90265,72.69514 37.84953,115.22904 -6.13954,18.5806 -15.06541,27.1724 -24.39113,34.309 21.24291,3.4747 44.95328,-0.054 66.72005,-7.3062 6.03325,-31.6923 20.4027,-52.3809 49.2302,-61.441 -10.03686,-5.2284 -22.29316,-14.7844 -15.9461,-29.6499 3.45696,2.1005 24.47718,36.5309 57.59425,8.9284 11.66664,-9.7256 19.932,-27.4102 21.59975,-43.94094 0.26825,-2.6522 0.39732,-4.9122 0.39226,-6.8557 -16.65724,-6.3622 -26.84341,-13.0156 -36.34122,-27.7469 -15.12868,3.9834 -22.91066,6.4584 -31.36835,6.2888 -36.9739,-0.744 -61.527,-40.6308 -113.9282,-22.4728 -28.91102,10.0191 -72.41925,43.7081 -75.27138,76.48104 -2.92551,33.6181 23.32571,66.1936 48.53427,89.1726 24.19626,4.1783 44.63946,-12.6714 41.32674,-51.685 -2.62183,-31.224 -6.87092,-45.067 -26.00067,-79.31044"
       style="fill:#bbaa8c;fill-opacity:1;fill-rule:evenodd;stroke:none;stroke-width:0.0253073"
       id="path14" /><path
       d="m 772.22577,1400.4506 c -5.00325,-69.4894 31.07984,-111.2869 26.92439,-171.9762 -4.41612,-64.488 -55.28877,-74.5122 -120.99905,-74.6083 -8.91828,58.5761 -51.01234,85.0324 -69.13714,110.2258 l -38.96788,49.5794 c -23.41907,29.9081 -22.70718,46.9044 -32.05771,58.9279 -26.22438,1.6982 -30.55218,-19.8661 -46.46917,-36.0906 -0.52463,-0.534 -1.31422,-1.3539 -2.04407,-1.9462 -1.13099,48.6583 13.78106,76.6564 52.18153,96.9157 17.29903,9.1271 15.68216,8.5766 35.18975,2.6762 54.08591,-16.3586 155.67227,-29.5543 161.95606,-31.8252 -0.0152,-0.064 3.80874,-14.2418 -22.72087,-12.3562 -8.48551,0.6031 -21.34666,5.132 -31.67961,6.4625 14.94899,-12.3036 20.52418,-14.1637 31.07731,-37.5907 7.54409,-16.7484 10.37092,-42.797 2.16377,-60.3704 -22.71074,-48.6482 -79.83933,-11.3402 -86.23625,2.4346 0.43832,-30.9989 49.81657,-53.7627 88.52402,-30.7053 37.28265,22.2071 15.11856,78.6422 1.52604,106.4448 25.30218,0.1721 31.3076,3.5355 35.58706,24.6128 l 15.18182,-0.8106"
       style="fill:#bbaa8c;fill-opacity:1;fill-rule:evenodd;stroke:none;stroke-width:0.0253073"
       id="path18" /><path
       d="m 878.09867,1240.5106 c -0.62256,62.2229 41.24323,36.7107 25.66915,124.8938 12.68401,6.0485 15.90814,12.0033 32.88425,15.3261 -38.25192,-104.9669 86.54843,-92.779 83.06863,-48.5419 -18.6489,-2.0524 -4.0568,2.0651 -16.1132,-9.89 -4.00103,-3.9682 -7.67573,-6.5116 -14.11383,-8.5944 -41.82282,-13.5394 -71.64995,32.7628 -31.53795,70.6984 12.75735,-0.615 26.48925,-8.0604 35.05055,-5.55 8.12873,24.9128 -71.39937,27.4984 -105.84,-13.8025 -7.19739,-8.6348 -16.02709,-33.1677 -29.13625,-19.5802 -8.81452,12.1854 2.7357,35.1012 9.02204,42.4681 11.03396,12.931 24.75809,12.1429 45.93013,13.7624 24.92259,1.9077 86.74068,13.6066 104.06601,11.9887 l 7.7517,0.4343 -7.7517,-0.4343 c 16.9281,-17.5961 30.5687,-21.6415 37.6953,-53.7384 5.2588,-23.6977 -1.0072,-53.0694 -9.9028,-73.305 -17.2291,-39.1857 -46.92983,-52.2367 -75.69913,-80.5607 l -11.18585,-9.7583 c -43.22226,8.3361 -64.33611,27.9114 -79.85705,44.1839"
       style="fill:#bbaa8c;fill-opacity:1;fill-rule:evenodd;stroke:none;stroke-width:0.0253073"
       id="path20" /></g><g
     id="layer1"
     transform="matrix(1.3333333,0,0,-1.3333333,-454.31332,3913.1726)"
     style="display:inline"><path
       d="m 658.57402,2669.617 c 2.0537,19.2291 11.38827,27.6488 25.29714,34.9221 10.91376,5.7074 30.58509,14.2011 43.66452,16.5833 5.45877,-11.7167 25.47365,-26.0222 37.6477,-36.3875 29.53926,-25.1491 48.76075,-66.3936 37.363,-105.2674 -3.61577,-12.3297 -6.03578,-16.0897 -13.93924,-24.4038 -4.69576,-4.9398 -11.81912,-12.8363 -20.00728,-15.6563 l -5.81371,0.3257 c -12.99402,-1.2135 -59.35754,7.5608 -78.04949,8.9916 -15.87903,1.2145 -26.17212,0.6235 -34.4476,10.3217 -4.71473,5.5252 -13.37741,22.712 -6.76652,31.8511 9.83187,10.1906 16.45414,-8.209 21.85219,-14.6852 25.83047,-30.9757 85.47652,-29.0365 79.38,-10.3518 -6.42109,1.8827 -16.71987,-3.7013 -26.28791,-4.1625 -30.08401,28.4517 -7.71366,63.1783 23.65342,53.0237 4.82863,-1.562 7.58459,-3.4696 10.5854,-6.4457 9.04227,-8.9664 -1.90184,-5.8783 12.08484,-7.4175 2.60981,33.1778 -90.99034,42.3187 -62.3014,-36.4065 -12.73208,2.4922 -15.15019,6.9582 -24.66319,11.4946 11.68057,66.1373 -19.71878,47.0032 -19.25187,93.6704 z m -79.40467,-119.955 -11.38637,-0.608 c -3.20959,15.8079 -7.71365,18.3306 -26.6903,18.4596 10.1944,20.8519 26.81747,63.1783 -1.14452,79.8337 -29.03058,17.2931 -66.06427,0.2201 -66.39302,-23.029 4.79769,10.331 47.64414,38.312 64.67719,1.8259 6.15536,-13.18 4.03525,-32.7166 -1.62282,-45.2778 -7.91486,-17.5703 -12.09624,-18.9653 -23.30799,-28.193 7.74971,0.9978 17.39558,4.3946 23.75972,4.8468 19.8972,1.4142 17.02925,-9.2188 17.04063,-9.2672 -4.71283,-1.7031 -80.90261,-11.5999 -121.46704,-23.8688 -14.6307,-4.4253 -13.41804,-4.8382 -26.39231,2.0072 -28.80035,15.1943 -39.98438,36.1929 -39.13615,72.6866 0.54739,-0.4441 1.13959,-1.0591 1.53305,-1.4596 11.93775,-12.1682 15.1836,-28.3415 34.85189,-27.068 7.01289,9.0177 6.47897,21.7649 24.04329,44.196 l 29.22589,37.1846 c 13.59361,18.895 45.16415,38.7372 51.85285,82.6694 2.27766,11.6444 -1.82211,3.6537 4.80585,6.9468 50.90366,-0.051 97.21024,-7.5752 101.68014,-57.0097 4.01436,-44.4123 -24.50755,-65.5187 -23.15235,-133.7566 z m -228.18193,-54.3077 c 18.19693,1.731 44.77031,9.743 65.30676,13.3843 76.26551,13.5202 133.55988,17.5436 212.46347,19.5707 117.3295,3.0152 173.01243,-14.7216 276.18061,-33.2231 -23.02137,14.2797 -85.3,32.875 -118.23295,38.4281 7.4707,9.3526 24.17158,18.6942 30.60785,46.0385 19.20442,81.5894 -66.56251,131.0278 -77.06059,144.7373 6.15916,-2.5072 15.35517,-0.9357 19.25756,1.0686 -1.78227,6.9849 -9.16945,8.5792 -12.88582,9.8509 7.59026,1.6912 14.92811,4.7868 17.31964,13.0035 -17.06341,5.92 -24.94979,-8.4065 -27.58806,-8.3533 6.32807,22.173 10.88528,43.6816 0.60167,66.0405 -17.04443,37.0594 -33.19869,-5.0127 -34.32993,-6.7285 -20.6545,-2.0404 -13.64314,7.3568 -34.5368,-6.1649 -14.35491,-9.2909 -20.15724,3.8379 -29.44058,-13.252 -17.47149,-32.1625 13.67922,-43.6324 19.19114,-57.507 6.28821,-15.8278 -17.80366,-35.6871 -6.13828,-71.9911 7.53903,-23.4635 23.6781,-36.9073 17.72394,-63.1477 -10.53036,8.9644 -13.6868,18.5172 -32.97663,12.9142 -8.54309,-18.838 -1.74619,-35.8161 8.38366,-48.9743 l -40.76429,0.2828 c -5.19684,36.9122 14.0702,78.8818 23.15803,113.7755 8.28118,31.7978 6.10792,59.0405 -9.35925,87.9667 -4.57428,8.5545 -10.1925,13.7702 -13.46093,21.5845 14.24673,40.8384 75.38463,14.2506 79.77291,89.658 1.57727,27.1325 -1.71394,54.21 -32.16805,47.4719 -38.50944,-8.5203 -29.64557,-11.4888 -65.98362,3.874 -23.37442,9.8812 -42.4061,14.9717 -68.36755,4.2534 -45.74154,-18.8893 -73.35581,-50.3133 -58.33013,-101.0214 3.0976,-10.4526 8.47401,-21.5125 13.31098,-29.4577 l 15.48748,-20.8045 c 3.53416,-3.6973 3.3937,-1.2014 -0.96991,-4.2079 -11.45222,5.6733 -35.20473,-4.2213 -38.93799,-14.6833 8.45389,-6.5198 16.32793,-5.4835 29.24658,-3.9498 -3.13158,-7.6719 -6.03218,-11.4243 -7.20193,-20.8671 6.21685,0.4537 9.51375,1.2622 13.76157,4.2061 1.54311,1.0705 3.0084,2.6097 4.79256,3.9461 5.80423,4.3501 0.16703,0.9375 6.13258,3.9972 -6.18571,-41.3109 -52.15862,-77.6225 -78.06789,-113.6455 -12.1769,-16.9305 -17.48383,-30.9722 -20.51652,-35.2504 -2.55932,-3.612 0.084,-0.949 -3.65146,-3.781 -10.52048,10.3805 -19.66583,33.0013 -30.10753,48.4154 -24.45308,-53.0314 -3.50493,-99.5973 37.92576,-116.7209 -10.06817,-7.8502 -37.18458,-14.5896 -49.54806,-20.7368 z m 298.46272,282.4987 c 10.47909,5.9447 10.09948,-0.7422 21.5276,5.8345 5.78525,3.3293 9.97423,6.9413 19.15697,5.8024 10.57211,-1.3097 17.19438,-7.4822 21.91672,2.0251 4.46799,8.9949 -2.27766,12.064 8.55068,18.5554 6.13069,-3.2248 1.4653,2.6041 6.19142,-5.9845 7.88449,-14.3284 2.58704,-45.8834 -1.26599,-59.6879 -2.7218,-9.7521 -0.0189,-7.9717 -9.04229,-12.7473 -15.78223,-8.3514 -29.36653,-11.4698 -48.1249,-10.8928 -4.71095,15.3191 -40.79466,34.4893 -18.91021,57.0951 z m -180.68661,54.6807 c -8.07732,33.8877 14.36668,49.0531 30.47348,60.9899 56.70027,42.0226 82.85342,7.2676 105.32817,0.079 14.72123,-4.7071 27.88227,1.0553 41.67915,3.092 7.51625,-18.1055 15.46906,-12.5139 25.02952,-23.253 2.01951,-2.2663 2.66674,-5.5974 1.92841,-12.9143 -1.25081,-12.398 -7.44982,-25.6615 -16.19981,-32.9558 -24.83781,-20.7019 -40.60296,5.1209 -43.19569,6.6963 -4.7603,-11.1491 4.43193,-18.3161 11.95958,-22.2374 -21.62063,-6.795 -32.39772,-22.3116 -36.92266,-46.0808 -16.32508,-5.4398 -34.10785,-8.0856 -50.04004,-5.4796 6.9943,5.3524 13.6887,11.7964 18.29335,25.7318 10.53985,31.9005 -15.45007,79.1067 -28.38714,86.4217 14.34731,-25.6824 17.53413,-36.0648 19.5005,-59.4828 5.02602,-59.1753 -62.81956,-50.3627 -79.44682,19.3924"
       style="fill:#11073c;fill-opacity:1;fill-rule:evenodd;stroke:none;stroke-width:0.0189805"
       id="path16" /><path
       d="m 671.87362,2776.9761 2.6307,-1.9019 c 6.29581,-2.3839 5.69033,-0.1784 11.54201,-4.3295 -0.8826,11.842 -10.85302,10.9214 -14.17271,6.2314"
       style="fill:#11073c;fill-opacity:1;fill-rule:evenodd;stroke:none;stroke-width:0.0189805"
       id="path22" /><path
       d="m 569.98471,2866.503 c 1.19198,0.522 5.30504,19.6561 28.73449,10.8606 -5.78524,14.5713 -34.3489,14.0949 -28.73449,-10.8606"
       style="fill:#11073c;fill-opacity:1;fill-rule:evenodd;stroke:none;stroke-width:0.0189805"
       id="path24" /><path
       d="m 648.27335,2865.3908 c 1.85058,0 3.35194,-1.5014 3.35194,-3.3521 0,-1.8505 -1.50136,-3.3499 -3.35194,-3.3499 -1.85059,0 -3.35005,1.4994 -3.35005,3.3499 0,1.8507 1.49946,3.3521 3.35005,3.3521"
       style="fill:#11073c;fill-opacity:1;fill-rule:evenodd;stroke:none;stroke-width:0.0189805"
       id="path26" /><path
       d="m 647.07568,2849.2233 c 1.85249,0 3.35194,-1.4995 3.35194,-3.3501 0,-1.8506 -1.49945,-3.352 -3.35194,-3.352 -1.85059,0 -3.35005,1.5014 -3.35005,3.352 0,1.8506 1.49946,3.3501 3.35005,3.3501"
       style="fill:#11073c;fill-opacity:1;fill-rule:evenodd;stroke:none;stroke-width:0.0189805"
       id="path28" /><path
       d="m 658.55315,2857.307 c 1.8506,0 3.35006,-1.4994 3.35006,-3.3501 0,-1.8505 -1.49946,-3.352 -3.35006,-3.352 -1.85059,0 -3.35195,1.5015 -3.35195,3.352 0,1.8507 1.50136,3.3501 3.35195,3.3501"
       style="fill:#11073c;fill-opacity:1;fill-rule:evenodd;stroke:none;stroke-width:0.0189805"
       id="path30" /><path
       d="m 660.16079,2763.0121 c 11.72612,-1.4823 24.76948,-6.0395 31.0615,-21.7705 -7.90345,7.9509 -20.55392,16.5205 -31.0615,21.7705"
       style="fill:#11073c;fill-opacity:1;fill-rule:evenodd;stroke:none;stroke-width:0.0189805"
       id="path32" /><path
       d="m 659.90835,2754.7063 c 12.47206,-5.6694 16.70848,-9.9021 19.16266,-23.1562 -5.57265,9.477 -11.67867,15.4634 -19.16266,23.1562"
       style="fill:#11073c;fill-opacity:1;fill-rule:evenodd;stroke:none;stroke-width:0.0189805"
       id="path34" /></g></svg>
