<?xml version="1.0" encoding="UTF-8"?>
<svg xmlns="http://www.w3.org/2000/svg" xmlns:xlink="http://www.w3.org/1999/xlink" width="3600" height="3600" viewBox="0 0 3600 3600">
<rect x="-360" y="-360" width="4320" height="4320" fill="rgb(100%, 100%, 100%)" fill-opacity="1"/>
<path fill-rule="evenodd" fill="rgb(7.054138%, 2.748108%, 23.925781%)" fill-opacity="1" d="M 2055.53125 2515.128906 C 2054.640625 2539.238281 2065.25 2549.46875 2053.511719 2582.761719 C 1938.410156 2630.585938 1875.859375 2390.820312 2020.371094 2292.539062 C 2159.390625 2197.980469 2343.328125 2311.558594 2296.570312 2444.480469 C 2237.429688 2472.789062 2244.261719 2443.871094 2225.28125 2426.929688 C 2210.929688 2414.140625 2198.558594 2414.230469 2195.699219 2435.378906 C 2190.820312 2471.480469 2239.558594 2513.441406 2170.640625 2546.011719 C 2098.941406 2579.890625 2114.589844 2521.511719 2080.71875 2500.179688 C 2059.648438 2486.921875 2056.308594 2494.101562 2055.53125 2515.128906 Z M 1726.050781 1697.738281 C 1768.378906 1705.710938 1800.449219 1724.109375 1797.671875 1738.839844 C 1794.898438 1753.558594 1758.339844 1759.03125 1716.011719 1751.058594 C 1673.679688 1743.078125 1641.609375 1724.679688 1644.390625 1709.960938 C 1647.160156 1695.230469 1683.71875 1689.761719 1726.050781 1697.738281 Z M 1053.859375 2443.609375 C 909.011719 2400.480469 1070.320312 2157.429688 1265.871094 2237.578125 C 1322.5 2260.789062 1377.5 2321.421875 1387.789062 2394.070312 C 1392.019531 2424.011719 1381.328125 2481.988281 1350.261719 2516.578125 C 1320.308594 2549.929688 1249.039062 2563.019531 1252.800781 2504.488281 C 1254.410156 2479.421875 1267.21875 2453.46875 1262.230469 2447.71875 C 1251.691406 2435.570312 1215.53125 2510.210938 1205.679688 2518.910156 C 1193.371094 2529.78125 1174.859375 2534.488281 1143.320312 2521.871094 C 1049.828125 2484.5 1123.078125 2432.738281 1124.121094 2393.660156 C 1087.828125 2388.910156 1088.988281 2421.410156 1053.859375 2443.609375 Z M 1217.910156 2170.300781 C 1223.289062 2148.820312 1236.511719 2125.421875 1247.078125 2106.988281 C 1463.679688 2230.710938 1365.679688 2117.441406 1431.871094 2284.339844 C 1512.71875 2488.230469 1708.980469 2482.761719 1821.738281 2321.421875 C 1895.910156 2215.300781 1882.929688 2265.71875 2001.539062 2222.191406 C 2045.640625 2206 2093.910156 2182.460938 2123.019531 2158.671875 C 2130.691406 2174.28125 2142.859375 2197.761719 2144.148438 2217.921875 C 1989.429688 2220.789062 1894.578125 2323.800781 1894.601562 2456.71875 C 1894.609375 2531.21875 1914.949219 2542.25 1935.878906 2588.890625 C 1833.480469 2653.179688 1499.738281 2624.21875 1369.550781 2549.949219 C 1469.929688 2448.820312 1443.660156 2311.890625 1333 2221.488281 C 1288.160156 2184.859375 1263.460938 2192.851562 1217.910156 2170.300781 Z M 2046.679688 1209.980469 L 2102.25 1253.988281 C 2240.039062 1383.980469 2168.511719 1021.53125 2361.660156 1251.359375 C 2485.539062 1398.761719 2365.328125 1302.738281 2547.308594 1440.230469 C 2641.328125 1511.269531 2565.390625 1631.398438 2521.109375 1713.519531 C 2462.28125 1822.660156 2454.871094 1856.558594 2424.300781 1991.71875 C 2382.96875 1979.339844 2357.03125 1893.46875 2350.28125 1837.980469 C 2341.710938 1767.570312 2356.941406 1701 2366.96875 1632.101562 C 2381.558594 1532 2399.300781 1312.058594 2311.710938 1266.769531 C 2357.308594 1391.949219 2343.488281 1445.210938 2329.03125 1582.390625 C 2296.050781 1536.691406 2285.011719 1472.710938 2236.730469 1435.871094 C 2301.921875 1631.511719 2274.359375 1845.910156 2149.429688 1960.039062 L 2103.941406 2000.519531 C 2101.058594 1890.25 2072.328125 1879.359375 2070.789062 1871.03125 C 2070.300781 1868.371094 2068.609375 1867.910156 2067.488281 1866.378906 C 2120.371094 2158.851562 1824.71875 2231.128906 1704.160156 2033.859375 C 1663.011719 1966.519531 1730.28125 1954.109375 1776.578125 1938.488281 C 1824.25 1922.398438 1872.851562 1891.71875 1891.980469 1862.429688 C 1943.320312 1783.820312 1883.851562 1688.070312 1765.441406 1649.230469 C 1692.5 1625.308594 1509.570312 1613.820312 1516.910156 1750.988281 C 1520.160156 1811.628906 1548.769531 1850.039062 1578.210938 1880.851562 C 1599.101562 1902.71875 1601.960938 1904.53125 1630.648438 1924.351562 C 1741.148438 2000.671875 1485.871094 2121.871094 1379.691406 2005.820312 C 1274.5 1890.851562 1308.769531 1755.230469 1389.078125 1684.871094 C 1354.550781 1700.019531 1331.078125 1714.46875 1294.238281 1779.289062 C 1244.25 1711.300781 1232.761719 1545.359375 1254 1452.121094 C 1289.601562 1295.789062 1357.75 1258.140625 1393.878906 1203.710938 C 1338.738281 1211.679688 1303.550781 1240.101562 1274.980469 1261.53125 C 1313.199219 1094.539062 1346.851562 1118.621094 1385.078125 1030.589844 C 1335.621094 1045.871094 1271.929688 1093.78125 1253.671875 1136.328125 C 1203.730469 1252.769531 1205.738281 1416.429688 1158.109375 1503.378906 C 1135.011719 1545.539062 1090.988281 1605.820312 1032.03125 1605.179688 C 1031.898438 1552.070312 1047.410156 1508.050781 1043.941406 1443.878906 C 1038.121094 1336.261719 1001.128906 1232.230469 1008.839844 1141.890625 C 1014.199219 1079.019531 1028.890625 1060.101562 1090.589844 1057.308594 C 1231.628906 1050.910156 1254.800781 1019.550781 1363.269531 981.769531 C 1532.820312 922.71875 1485.210938 1076.25 1526.339844 1139.410156 C 1557.089844 1144.988281 1619.769531 1118.429688 1663.898438 1113.78125 C 1718.539062 1108.019531 1768.171875 1107.550781 1822.699219 1115.980469 C 1887.871094 1126.058594 2016.589844 1170.339844 2046.679688 1209.980469 Z M 969.921875 2408.378906 C 983.039062 2453.410156 1007.800781 2469.429688 1062.941406 2469.339844 C 1088.648438 2599.320312 1202.089844 2544.808594 1241.359375 2562.808594 C 1528.921875 2694.605469 1779.488281 2712.25 2086.179688 2600.457031 C 2157.78125 2574.359375 2185.480469 2621.46875 2255.921875 2512.878906 C 2292.460938 2456.539062 2410.980469 2468.96875 2312.660156 2306.601562 C 2268.558594 2233.761719 2214.738281 2254.820312 2192.53125 2206.671875 C 2169.660156 2157.058594 2153.800781 2085.789062 2137.558594 2042.050781 C 2213.359375 1986.488281 2280.070312 1818.699219 2302.089844 1788.691406 C 2308.28125 1854.421875 2308.761719 1904.308594 2334.878906 1961.140625 C 2356.898438 2009.050781 2380.878906 2067.140625 2441.789062 2059.238281 C 2476.429688 2023.949219 2465.441406 1952.289062 2488.039062 1893.441406 C 2539.480469 1759.480469 2694.070312 1525.039062 2607.808594 1424.109375 C 2574.910156 1385.601562 2513.300781 1387.210938 2387.980469 1218.171875 C 2255.328125 1039.230469 2185.859375 1174.199219 2156.21875 1209.300781 L 2140.710938 1224.671875 C 2065.441406 1173.320312 2038.898438 1126.710938 1903.679688 1085.480469 C 1777.519531 1047.011719 1692.300781 1052.550781 1567.410156 1083.378906 C 1516.511719 837.171875 1369.21875 940.488281 1210.570312 990.691406 C 1043.269531 1043.621094 930.03125 910.308594 977.355469 1307.5 C 984.058594 1363.738281 993.046875 1423.519531 996.191406 1479.808594 C 1000.308594 1553.550781 968.351562 1604.140625 985.46875 1658.910156 C 1034.449219 1676.519531 1074.089844 1662.300781 1115.230469 1636.640625 C 1170.019531 1602.480469 1155.789062 1590.230469 1192.480469 1552.039062 C 1217.308594 1813.171875 1273.320312 1767.398438 1280.101562 1883.890625 C 1283.589844 1943.808594 1269.371094 1946.929688 1246.730469 1995.839844 C 1227.960938 2036.390625 1183.539062 2159.421875 1149.351562 2177.539062 C 1108.128906 2199.398438 1089.378906 2195.109375 1053.761719 2224.570312 C 1015.710938 2256.019531 979.207031 2300.890625 969.84375 2350.160156 C 966.136719 2369.660156 966.414062 2389.078125 969.921875 2408.378906 "/>
<path fill-rule="evenodd" fill="rgb(73.242188%, 66.992188%, 54.881287%)" fill-opacity="1" d="M 1987.140625 1525.890625 C 2013.75 1547.449219 2054.378906 1573.738281 2055.878906 1622.511719 C 2021.050781 1573.53125 1928.699219 1554.480469 1902.148438 1542.039062 C 1913.851562 1479.070312 2035.730469 1464.070312 2074.019531 1517.761719 C 2039.019531 1519.320312 2019.199219 1514.011719 1987.140625 1525.890625 Z M 2046.679688 1209.980469 C 2062.308594 1243.910156 1929.96875 1312.109375 1873.480469 1359.761719 C 1807.820312 1415.140625 1770.941406 1493.410156 1842.078125 1587.589844 C 1924.429688 1696.601562 2124.398438 1709.609375 2149.429688 1960.039062 C 2274.359375 1845.910156 2301.921875 1631.511719 2236.730469 1435.871094 C 2285.011719 1472.710938 2296.050781 1536.691406 2329.03125 1582.390625 C 2343.488281 1445.210938 2357.308594 1391.949219 2311.710938 1266.769531 C 2399.300781 1312.058594 2381.558594 1532 2366.96875 1632.101562 C 2356.941406 1701 2341.710938 1767.570312 2350.28125 1837.980469 C 2357.03125 1893.46875 2382.96875 1979.339844 2424.300781 1991.71875 C 2454.871094 1856.558594 2462.28125 1822.660156 2521.109375 1713.519531 C 2565.390625 1631.398438 2641.328125 1511.269531 2547.308594 1440.230469 C 2365.328125 1302.738281 2485.539062 1398.761719 2361.660156 1251.359375 C 2168.511719 1021.53125 2240.039062 1383.980469 2102.25 1253.988281 L 2046.679688 1209.980469 "/>
<path fill-rule="evenodd" fill="rgb(73.242188%, 66.992188%, 54.881287%)" fill-opacity="1" d="M 1609.109375 1555.050781 C 1439.019531 1549.191406 1538.230469 1271.550781 1649.878906 1338.890625 C 1683.480469 1359.160156 1689.851562 1412.171875 1686.601562 1461.289062 C 1695.191406 1446.199219 1727.339844 1313.800781 1659.890625 1270.679688 C 1497.558594 1166.921875 1319.648438 1610.5 1589.511719 1559.960938 L 1609.109375 1555.050781 "/>
<path fill-rule="evenodd" fill="rgb(7.054138%, 2.748108%, 23.925781%)" fill-opacity="1" d="M 1609.109375 1555.050781 C 1648.988281 1542.640625 1674.828125 1507.421875 1686.601562 1461.289062 C 1689.851562 1412.171875 1683.480469 1359.160156 1649.878906 1338.890625 C 1538.230469 1271.558594 1439.019531 1549.191406 1609.109375 1555.050781 Z M 1632.980469 1356.691406 C 1649.171875 1356.691406 1662.289062 1369.808594 1662.289062 1386 C 1662.289062 1402.191406 1649.171875 1415.320312 1632.980469 1415.320312 C 1616.78125 1415.320312 1603.660156 1402.191406 1603.660156 1386 C 1603.660156 1369.808594 1616.78125 1356.691406 1632.980469 1356.691406 "/>
<path fill-rule="evenodd" fill="rgb(7.054138%, 2.748108%, 23.925781%)" fill-opacity="1" d="M 1413.609375 1855.480469 C 1420.429688 1855.480469 1425.960938 1861.011719 1425.960938 1867.828125 C 1425.960938 1874.648438 1420.429688 1880.179688 1413.609375 1880.179688 C 1406.789062 1880.179688 1401.261719 1874.648438 1401.261719 1867.828125 C 1401.261719 1861.011719 1406.789062 1855.480469 1413.609375 1855.480469 "/>
<path fill-rule="evenodd" fill="rgb(7.054138%, 2.748108%, 23.925781%)" fill-opacity="1" d="M 1476.78125 1844.539062 C 1483.601562 1844.539062 1489.128906 1850.070312 1489.128906 1856.890625 C 1489.128906 1863.710938 1483.601562 1869.238281 1476.78125 1869.238281 C 1469.960938 1869.238281 1464.429688 1863.710938 1464.429688 1856.890625 C 1464.429688 1850.070312 1469.960938 1844.539062 1476.78125 1844.539062 "/>
<path fill-rule="evenodd" fill="rgb(7.054138%, 2.748108%, 23.925781%)" fill-opacity="1" d="M 1484.019531 1913.289062 C 1490.839844 1913.289062 1496.371094 1918.820312 1496.371094 1925.640625 C 1496.371094 1932.46875 1490.839844 1938 1484.019531 1938 C 1477.199219 1938 1471.671875 1932.46875 1471.671875 1925.640625 C 1471.671875 1918.820312 1477.199219 1913.289062 1484.019531 1913.289062 "/>
<path fill-rule="evenodd" fill="rgb(7.054138%, 2.748108%, 23.925781%)" fill-opacity="1" d="M 1852.148438 1963.441406 C 1858.96875 1963.441406 1864.5 1968.96875 1864.5 1975.789062 C 1864.5 1982.609375 1858.96875 1988.140625 1852.148438 1988.140625 C 1845.328125 1988.140625 1839.800781 1982.609375 1839.800781 1975.789062 C 1839.800781 1968.96875 1845.328125 1963.441406 1852.148438 1963.441406 "/>
<path fill-rule="evenodd" fill="rgb(7.054138%, 2.748108%, 23.925781%)" fill-opacity="1" d="M 1805.839844 2011.378906 C 1812.660156 2011.378906 1818.191406 2016.910156 1818.191406 2023.730469 C 1818.191406 2030.550781 1812.660156 2036.078125 1805.839844 2036.078125 C 1799.019531 2036.078125 1793.488281 2030.550781 1793.488281 2023.730469 C 1793.488281 2016.910156 1799.019531 2011.378906 1805.839844 2011.378906 "/>
<path fill-rule="evenodd" fill="rgb(7.054138%, 2.748108%, 23.925781%)" fill-opacity="1" d="M 1897.398438 2031.960938 C 1904.21875 2031.960938 1909.75 2037.488281 1909.75 2044.308594 C 1909.75 2051.140625 1904.21875 2056.671875 1897.398438 2056.671875 C 1890.578125 2056.671875 1885.050781 2051.140625 1885.050781 2044.308594 C 1885.050781 2037.488281 1890.578125 2031.960938 1897.398438 2031.960938 "/>
<path fill-rule="evenodd" fill="rgb(100%, 44.700623%, 44.700623%)" fill-opacity="1" d="M 1489.058594 2150.210938 C 1509.210938 2107.351562 1588.558594 2070.710938 1620.101562 2105.101562 C 1630.851562 2116.820312 1628.511719 2138.078125 1628.511719 2153.289062 L 1628.511719 2272.199219 L 1657.570312 2157.699219 C 1661.171875 2143.378906 1662.75 2126.78125 1678.160156 2120.238281 C 1704.148438 2109.21875 1750.949219 2134.699219 1769.699219 2160.640625 C 1803.488281 2207.390625 1781.351562 2288.941406 1746.980469 2329.378906 C 1733.679688 2345.03125 1716.601562 2357.078125 1690.351562 2368.03125 C 1664.898438 2378.640625 1639.691406 2381.421875 1615.21875 2377.398438 C 1569.640625 2369.921875 1539.171875 2349.449219 1517.46875 2320.28125 C 1484.910156 2276.519531 1464.96875 2201.449219 1489.058594 2150.210938 "/>
<path fill-rule="evenodd" fill="rgb(7.054138%, 2.748108%, 23.925781%)" fill-opacity="1" d="M 1902.148438 1542.039062 C 1928.699219 1554.480469 2021.050781 1573.53125 2055.878906 1622.511719 C 2054.378906 1573.738281 2013.75 1547.449219 1987.140625 1525.890625 C 2019.199219 1514.011719 2039.019531 1519.320312 2074.019531 1517.761719 C 2035.730469 1464.070312 1913.851562 1479.070312 1902.148438 1542.039062 "/>
</svg>
