<?xml version="1.0" encoding="UTF-8" standalone="no"?>
<svg
   width="128"
   height="128"
   viewBox="0 0 128 128"
   version="1.1"
   id="svg28"
   xmlns="http://www.w3.org/2000/svg"
   xmlns:svg="http://www.w3.org/2000/svg">
  <defs
     id="defs32" />
  <g
     id="layer1"
     style="display:inline">
    <path
       fill-rule="evenodd"
       fill="#12073d"
       fill-opacity="1"
       d="m 83.353828,116.32126 c -0.06492,1.75749 0.70847,2.50328 -0.147223,4.9302 -8.39054,3.48622 -12.950285,-13.9919 -2.415825,-21.15628 10.134041,-6.893009 23.54249,1.38644 20.13396,11.07601 -4.311105,2.06363 -3.813106,-0.0442 -5.196703,-1.27939 -1.046178,-0.93226 -1.94798,-0.92571 -2.156442,0.61595 -0.355633,2.63166 3.197218,5.69048 -1.826686,8.06477 -5.226617,2.46965 -4.085908,-1.78597 -6.555014,-3.34099 -1.535972,-0.96649 -1.779397,-0.44311 -1.836067,1.08973 z M 59.335783,56.736158 c 3.085547,0.581183 5.42339,1.922398 5.220921,2.996171 -0.202175,1.072947 -2.867169,1.471894 -5.952765,0.890712 -3.085842,-0.581776 -5.423685,-1.922943 -5.220921,-2.995887 0.201879,-1.073824 2.866874,-1.472474 5.952765,-0.890996 z M 10.335226,111.1077 c -10.5589189,-3.14394 1.199948,-20.86153 15.454944,-15.018967 4.128093,1.691992 8.137395,6.111907 8.887455,11.407717 0.308344,2.18267 -0.470986,6.40898 -2.735659,8.93042 -2.18345,2.43126 -7.378786,3.38546 -7.104572,-0.88126 0.117317,-1.82728 1.05104,-3.71918 0.687402,-4.13836 -0.76828,-0.88554 -3.404205,4.55548 -4.122347,5.18964 -0.897285,0.7925 -2.246719,1.13559 -4.545815,0.21583 -6.815275,-2.72422 -1.475593,-6.49747 -1.399558,-9.34612 -2.645643,-0.3463 -2.56107,2.02288 -5.12185,3.6411 z M 22.293988,91.184401 c 0.392122,-1.56582 1.355996,-3.271505 2.126242,-4.615278 15.789559,9.019017 8.645651,0.761998 13.470817,12.928385 5.893543,14.862952 20.20036,14.464292 28.420009,2.703132 5.40689,-7.735879 4.460695,-4.060552 13.106886,-7.233557 3.214896,-1.180296 6.733569,-2.896243 8.855535,-4.63037 0.559282,1.137866 1.446254,2.849491 1.540247,4.319124 -11.278482,0.208996 -18.192863,7.718203 -18.191145,17.407483 0,5.43081 1.483281,6.235 3.00899,9.63492 -7.464528,4.68644 -31.793223,2.57533 -41.283469,-2.83868 7.317302,-7.37197 5.402323,-17.35373 -2.664455,-23.943751 -3.268668,-2.670095 -5.069179,-2.087492 -8.389657,-3.731408 z m 60.414573,-70.004208 4.050895,3.20807 c 10.04437,9.476006 4.830273,-16.9453929 18.910164,-0.191658 9.03035,10.745128 0.26739,3.745351 13.53314,13.76806 6.85372,5.178542 1.31813,13.935526 -1.90982,19.921878 -4.28838,7.956039 -4.82856,10.427104 -7.05705,20.279817 -3.01297,-0.902345 -4.90373,-7.162081 -5.39579,-11.206982 -0.62474,-5.132678 0.48552,-9.98544 1.21648,-15.007927 1.06357,-7.297068 2.3569,-23.330052 -4.0281,-26.631478 3.32392,9.125182 2.31647,13.00779 1.26259,23.007716 -2.40419,-3.331324 -3.2089,-7.99527 -6.728409,-10.680801 4.752239,14.261601 2.743019,29.890524 -6.363937,38.210154 l -3.315958,2.950899 c -0.210132,-8.038293 -2.304499,-8.832213 -2.416709,-9.439279 -0.03537,-0.193916 -0.158863,-0.227507 -0.240626,-0.339178 3.855008,21.320344 -17.697077,26.589096 -26.485433,12.208822 -2.999562,-4.908902 1.904178,-5.813555 5.279065,-6.952247 3.475114,-1.172924 7.017995,-3.409358 8.412442,-5.544443 3.742502,-5.730359 -0.592576,-12.710192 -9.224283,-15.541516 -5.31717,-1.743845 -18.652159,-2.58127 -18.117086,7.417828 0.236891,4.420472 2.322422,7.220467 4.468598,9.466569 1.522863,1.594076 1.731272,1.726224 3.822498,3.171048 8.05509,5.563498 -10.553758,14.398502 -18.293923,5.938774 -7.668125,-8.380821 -5.169947,-18.267159 0.684258,-23.396107 -2.516935,1.104225 -4.228024,2.157574 -6.913496,6.882758 -3.643993,-4.956136 -4.481466,-17.052743 -2.933267,-23.849513 2.595262,-11.396096 7.563038,-14.140545 10.19675,-18.108251 -4.019614,0.580886 -6.584626,2.65277 -8.667309,4.21491 2.785995,-12.173207 5.239141,-10.417681 8.025724,-16.8349061 -3.605248,1.1139567 -8.24813,4.6064491 -9.57908,7.7080081 -3.640555,8.488168 -3.494168,20.418494 -6.966177,26.756795 -1.683747,3.073317 -4.892911,7.467623 -9.1906853,7.42093 C 8.7343735,46.117435 9.8650988,42.908576 9.6122364,38.230627 9.1879564,30.385718 6.4913463,22.802153 7.0534456,16.216699 7.4441284,11.633577 8.5150811,10.254548 13.012753,10.050949 23.294055,9.5845257 24.983194,7.2984974 32.890225,4.5443793 45.249898,0.2397906 41.77935,11.431695 44.777486,16.035884 c 2.241593,0.406604 6.810716,-1.529391 10.027577,-1.868286 3.983126,-0.420016 7.601191,-0.454184 11.576069,0.160341 4.750819,0.734642 14.133962,3.962594 16.327429,6.852254 z M 4.2164548,108.53953 c 0.9561982,3.28263 2.7612475,4.45039 6.7808182,4.44387 1.873957,9.47513 10.143483,5.50141 13.006086,6.81356 20.962355,9.60757 39.227846,10.89378 61.584648,2.74445 5.219495,-1.90246 7.238683,1.53164 12.373622,-6.38417 2.663561,-4.10698 11.303271,-3.20092 4.136031,-15.03695 -3.214833,-5.309794 -7.138149,-3.774657 -8.756966,-7.284539 -1.667237,-3.616636 -2.823364,-8.811974 -4.007337,-12.000358 5.52563,-4.05031 10.388614,-16.281557 11.993763,-18.469041 0.45136,4.791537 0.48637,8.428104 2.39019,12.570983 1.60517,3.492503 3.35329,7.727048 7.79345,7.150979 2.52519,-2.572427 1.72415,-7.796241 3.37146,-12.086048 3.74992,-9.765294 15.01902,-26.855304 8.7308,-34.212734 -2.3982,-2.807108 -6.88929,-2.689793 -16.02474,-15.012189 C 97.918365,8.7331093 92.854289,18.571868 90.693624,21.1307 l -1.130495,1.120476 C 84.076243,18.507838 82.141326,15.110164 72.284347,12.104556 63.087665,9.3003497 56.875516,9.7041017 47.771401,11.951391 44.061062,-5.9963223 33.323891,1.5351387 21.758918,5.1947535 9.5632563,9.0531468 1.3085626,-0.66486102 4.7583418,28.289087 c 0.4886348,4.099558 1.1438516,8.457433 1.3730795,12.560719 0.3001273,5.375559 -2.0294346,9.063412 -0.781649,13.055916 3.5705145,1.283657 6.4601857,0.247154 9.4592057,-1.623378 3.993936,-2.490184 2.956589,-3.383141 5.631267,-6.167169 1.809891,19.035738 5.892951,15.699004 6.387313,24.190902 0.254279,4.367779 -0.782227,4.595347 -2.432667,8.160723 -1.368223,2.955999 -4.606441,11.924571 -7.098596,13.245263 -3.004998,1.593482 -4.371812,1.280816 -6.968189,3.428412 -2.7737824,2.292571 -5.4347941,5.563495 -6.1173429,9.155085 -0.2702314,1.42151 -0.2500135,2.83701 0.00569,4.24397"
       id="path4"
       style="stroke-width:0.0728966" />
  </g>
  <g
     id="layer5"
     style="display:inline">
    <path
       fill-rule="evenodd"
       fill="#12073d"
       fill-opacity="1"
       d="m 36.559803,68.235032 c 0.497209,0 0.900379,0.403221 0.900379,0.900134 0,0.497161 -0.40317,0.900381 -0.900379,0.900381 -0.497162,0 -0.900084,-0.40322 -0.900084,-0.900381 0,-0.496913 0.402922,-0.900134 0.900084,-0.900134"
       id="path12"
       style="stroke-width:0.0728966" />
    <path
       fill-rule="evenodd"
       fill="#12073d"
       fill-opacity="1"
       d="m 41.164823,67.437485 c 0.497211,0 0.900132,0.40317 0.900132,0.900378 0,0.49716 -0.402921,0.900085 -0.900132,0.900085 -0.497159,0 -0.900379,-0.402925 -0.900379,-0.900085 0,-0.497208 0.40322,-0.900378 0.900379,-0.900378"
       id="path14"
       style="stroke-width:0.0728966" />
    <path
       fill-rule="evenodd"
       fill="#12073d"
       fill-opacity="1"
       d="m 41.69248,72.449102 c 0.497158,0 0.900378,0.403221 0.900378,0.900382 0,0.497752 -0.40322,0.900973 -0.900378,0.900973 -0.497162,0 -0.900085,-0.403221 -0.900085,-0.900973 0,-0.497161 0.402923,-0.900382 0.900085,-0.900382"
       id="path16"
       style="stroke-width:0.0728966" />
    <path
       fill-rule="evenodd"
       fill="#12073d"
       fill-opacity="1"
       d="m 68.527899,76.105035 c 0.497159,0 0.900379,0.402925 0.900379,0.900133 0,0.497161 -0.40322,0.90038 -0.900379,0.90038 -0.497211,0 -0.900134,-0.403219 -0.900134,-0.90038 0,-0.497208 0.402923,-0.900133 0.900134,-0.900133"
       id="path18"
       style="stroke-width:0.0728966" />
    <path
       fill-rule="evenodd"
       fill="#12073d"
       fill-opacity="1"
       d="m 65.152127,79.599551 c 0.497209,0 0.90038,0.403209 0.90038,0.90038 0,0.497161 -0.403171,0.900084 -0.90038,0.900084 -0.497161,0 -0.900377,-0.402923 -0.900377,-0.900084 0,-0.497171 0.403216,-0.90038 0.900377,-0.90038"
       id="path20"
       style="stroke-width:0.0728966" />
    <path
       fill-rule="evenodd"
       fill="#12073d"
       fill-opacity="1"
       d="m 71.826472,81.099921 c 0.497161,0 0.90038,0.402925 0.90038,0.900085 0,0.498036 -0.403219,0.901257 -0.90038,0.901257 -0.497209,0 -0.900133,-0.403221 -0.900133,-0.901257 0,-0.49716 0.402924,-0.900085 0.900133,-0.900085"
       id="path22"
       style="stroke-width:0.0728966" />
  </g>
  <g
     id="layer2"
     style="display:inline">
    <path
       fill-rule="evenodd"
       fill="#bbab8c"
       fill-opacity="1"
       d="m 78.368376,44.209028 c 1.93973,1.571574 4.901431,3.487934 5.010791,7.043382 -2.538887,-3.570527 -9.270981,-4.959273 -11.20644,-5.866186 0.853088,-4.590235 9.737697,-5.683704 12.528846,-1.769764 -2.551408,0.11361 -3.996238,-0.273383 -6.333197,0.592568 z m 4.340185,-23.028835 c 1.139287,2.473376 -8.507858,7.444887 -12.625636,10.918582 -4.786422,4.036948 -7.474792,9.742548 -2.289129,16.607931 6.003148,7.946602 20.580204,8.89481 22.404928,27.150336 9.106956,-8.31963 11.116176,-23.948553 6.363937,-38.210154 3.519509,2.685531 4.324219,7.349477 6.728409,10.680801 1.05388,-9.999926 2.06133,-13.882534 -1.26259,-23.007716 6.385,3.301426 5.09167,19.33441 4.0281,26.631478 -0.73096,5.022487 -1.84122,9.875249 -1.21648,15.007927 0.49206,4.044901 2.38282,10.304637 5.39579,11.206982 2.22849,-9.852713 2.76867,-12.323778 7.05705,-20.279817 3.22795,-5.986352 8.76354,-14.743336 1.90982,-19.921878 -13.26575,-10.022709 -4.50279,-3.022932 -13.53314,-13.76806 -14.079891,-16.7537349 -8.865794,9.667664 -18.910164,0.191658 l -4.050895,-3.20807"
       id="path6"
       style="stroke-width:0.0728966" />
    <path
       fill-rule="evenodd"
       fill="#bbab8c"
       fill-opacity="1"
       d="M 50.811131,46.334727 C 38.412123,45.9076 45.644277,25.668487 53.783093,30.577339 c 2.449464,1.477573 2.91387,5.341969 2.676977,8.922459 0.626165,-1.09999 2.969655,-10.751414 -1.947146,-13.89481 -11.83349,-7.563622 -24.802531,24.771801 -5.130418,21.087627 l 1.428625,-0.357888"
       id="path8"
       style="stroke-width:0.0728966" />
  </g>
  <g
     id="layer3"
     style="display:inline">
    <path
       fill-rule="evenodd"
       fill="#12073d"
       fill-opacity="1"
       d="m 50.811131,46.334727 c 2.907043,-0.904701 4.790694,-3.472016 5.648939,-6.834929 0.236893,-3.58049 -0.227513,-7.444886 -2.676977,-8.922459 -8.138816,-4.908258 -15.37097,15.330261 -2.971962,15.757388 z m 1.740111,-14.459789 c 1.18029,0 2.136504,0.956223 2.136504,2.136506 0,1.180345 -0.956214,2.137382 -2.136504,2.137382 -1.18088,0 -2.137339,-0.957037 -2.137339,-2.137382 0,-1.180283 0.956459,-2.136506 2.137339,-2.136506"
       id="path10"
       style="stroke-width:0.0728966" />
    <path
       fill-rule="evenodd"
       fill="#12073d"
       fill-opacity="1"
       d="m 72.172727,45.386224 c 1.935459,0.906913 8.667553,2.295659 11.20644,5.866186 -0.109359,-3.555448 -3.071061,-5.471808 -5.010791,-7.043382 2.336959,-0.865951 3.781789,-0.478945 6.333197,-0.592568 -2.791149,-3.91394 -11.675758,-2.820471 -12.528846,1.769764"
       id="path26"
       style="stroke-width:0.0728966" />
  </g>
  <g
     id="layer4"
     style="display:inline">
    <path
       fill-rule="evenodd"
       fill="#ff7272"
       fill-opacity="1"
       d="m 42.059801,89.719928 c 1.469039,-3.124291 7.253219,-5.795277 9.552611,-3.288299 0.783651,0.854207 0.613102,2.403837 0.613102,3.512682 v 8.668179 l 2.118236,-8.346684 c 0.262575,-1.043912 0.377586,-2.253821 1.500959,-2.73079 1.894454,-0.803294 5.306073,1.054174 6.672871,2.945193 2.463115,3.407939 0.849455,9.3527 -1.656089,12.300491 -0.969618,1.141 -2.214533,2.01914 -4.128091,2.81761 -1.855414,0.7734 -3.692953,0.97611 -5.476916,0.68285 -3.322491,-0.54506 -5.543555,-2.03741 -7.125641,-4.16365 -2.373444,-3.190092 -3.827113,-8.662492 -2.071042,-12.397582"
       id="path24"
       style="stroke-width:0.0728966" />
  </g>
</svg>
